<?xml version="1.0" encoding="UTF-8"?>
<svg xmlns="http://www.w3.org/2000/svg" width="24" height="24" viewBox="0 0 24 24" fill="none">
  <circle cx="12" cy="12" r="12" fill="#B150E2"/>
  <path d="M12 6C10.9 6 10 6.9 10 8C10 9.1 10.9 10 12 10C13.1 10 14 9.1 14 8C14 6.9 13.1 6 12 6ZM12 9.5C11.2 9.5 10.5 8.8 10.5 8C10.5 7.2 11.2 6.5 12 6.5C12.8 6.5 13.5 7.2 13.5 8C13.5 8.8 12.8 9.5 12 9.5Z" fill="white"/>
  <path d="M15.5 11.2C14.4 10.1 13.3 9.5 12 9.5C10.7 9.5 9.6 10.1 8.5 11.2C7.4 12.3 7 13.6 7 15.1C7 16.6 7.8 17.8 9.1 18.3C9.7 18.5 10.3 18.4 10.8 18C11.2 17.7 11.5 17.2 11.7 16.7C11.8 16.3 12.2 16.3 12.3 16.7C12.5 17.2 12.8 17.7 13.2 18C13.7 18.4 14.3 18.5 14.9 18.3C16.2 17.8 17 16.6 17 15.1C17 13.6 16.6 12.3 15.5 11.2ZM14.5 17.5C14.1 17.7 13.7 17.6 13.4 17.3C13.1 17 12.9 16.6 12.7 16.1C12.4 15.2 11.6 15.2 11.3 16.1C11.1 16.6 10.9 17 10.6 17.3C10.3 17.6 9.9 17.7 9.5 17.5C8.6 17.1 8 16.3 8 15.1C8 13.9 8.3 12.8 9.2 11.9C10.1 11 11 10.5 12 10.5C13 10.5 13.9 11 14.8 11.9C15.7 12.8 16 13.9 16 15.1C16 16.3 15.4 17.1 14.5 17.5Z" fill="white"/>
</svg>
