<?xml version="1.0" encoding="UTF-8"?>
<svg xmlns="http://www.w3.org/2000/svg" width="24" height="24" viewBox="0 0 24 24" fill="none">
  <circle cx="12" cy="12" r="12" fill="#1DB954"/>
  <path d="M17.9 10.9C14.7 9 9.35 8.8 6.3 9.75C5.8 9.9 5.3 9.6 5.15 9.15C5 8.65 5.3 8.15 5.75 8C9.3 6.95 15.15 7.15 18.85 9.3C19.3 9.55 19.45 10.1 19.2 10.55C18.95 10.9 18.4 11.05 17.9 10.9ZM17.8 13.15C17.55 13.5 17.1 13.65 16.75 13.4C14.05 11.8 9.95 11.3 6.8 12.15C6.4 12.25 5.95 12 5.85 11.6C5.75 11.2 6 10.75 6.4 10.65C10 9.75 14.5 10.25 17.55 12.1C17.9 12.25 18.05 12.8 17.8 13.15ZM16.6 15.35C16.4 15.65 16.05 15.75 15.75 15.55C13.4 14.15 10.45 13.85 6.95 14.55C6.6 14.65 6.3 14.4 6.2 14.1C6.1 13.75 6.35 13.45 6.65 13.35C10.45 12.65 13.75 12.95 16.4 14.5C16.7 14.65 16.8 15.05 16.6 15.35Z" fill="white"/>
</svg>
